<svg xmlns="http://www.w3.org/2000/svg" id="Layer_1" data-name="Layer 1" viewBox="0 0 221.86 79.3"><defs><style>.cls-1{fill:#d4bfaf;}</style></defs><path class="cls-1" d="M219.18,22.22c-.51.33-1.05.63-1.57.91s-1.08.53-1.64.78l-.54.24-5,2.23-4.72,2.12c-.44.2-.88.4-1.35.59l-3.64,1.39-1.83.71-.46.35.42.61c.85-.38,1.68-.78,2.7-1.18l.58-.19-.24.21-1.12.91A30.05,30.05,0,0,1,198,33.8a13.57,13.57,0,0,0-1.29.84L194,36.45c-.83.65-1.6,1.15-2.37,1.78s-1.56,1.33-2.56,2.27c-.54.5-1.08,1-1.57,1.52l-.79.84c-1.09,1.17-2.19,2.34-3.27,3.52l-.8.87c-.75.8-1.48,1.6-2.2,2.41l-1.59,1.78c-.21.26-.43.5-.64.76l-.61.74L175.78,55c-.38.45-.78.86-1.18,1.26l-.19.2c-.78.78-1.59,1.53-2.43,2.26-1.29,1.1-2.68,2.12-4,3.12l-.86.64-.65.44-1.78,1.16c-.35.24-.71.47-1.07.7l-1,.61c-.92.58-1.9,1.14-2.87,1.69l-2.63,1.5c-.34.19-.66.34-1,.52l-2.93,1.48-1,.44L149,72.48c-.4.18-.78.33-1.17.48l-3.29,1.25-1.15.42-3.26,1.09-1,.33-2.83.8c-.45.13-.9.21-1.36.3l-2.65.54-.49.08-2.87.37a7.69,7.69,0,0,1-.85.07l-.18-.06c-.58,0-1.15,0-1.85,0h0l-1.27-.18-.32-.1-.27-.1c.32,0,.66-.1,1-.18l1.14-.23.57-.11c.21,0,.44-.09.66-.12l.2,0,1.7-1c.62-.33,1.23-.68,1.84-1l.7-.41c.88-.56,1.9-1.08,2.83-1.65l3.94-2.36c1.19-.72,2.42-1.47,3.69-2.35h0l.12-.07c.53-.4,1.11-.87,1.57-1.23s.92-.78,1.37-1.19l.2-.2c1-.9,2-1.74,3.08-2.6l2.9-2.33.66-.51c.57-.46,1.15-.93,1.71-1.44a18.89,18.89,0,0,0,1.56-1.54c.78-.85,1.51-1.69,2.26-2.55l2.35-2.68c.35-.39.71-.77,1.07-1.14l.58-.62c.37-.38.77-.76,1.16-1.14l.32-.33c.49-.46,1-.91,1.45-1.34l1.71-1.5.66-.57c.38-.33.75-.67,1.16-1l1.14-1c.18-.16.35-.3.54-.44.67-.48,1.4-1,2-1.42a18,18,0,0,1,1.86-1.12c.64-.32,1.25-.66,1.89-.92,2.5-1,5.13-2,7.64-2.79l2-.71,1-.37-.21-.7-.87.22-1.73.4-4.66,1.07c-.62.15-1.25.27-1.89.4l-4.36.89-1.81.35-3.69.58-.21.08-.54.18a17.1,17.1,0,0,1-2.09.49l-.8.13c-.85.12-1.69.27-2.53.35a16.26,16.26,0,0,1-1.85.08H157.6l-.33,0-3.18.31-.53.1-.29.09-.55.16-.6.18c-.87.53-2.06,1.16-2.65,1.5a17.17,17.17,0,0,1-1.88.91c-.28.12-.54.23-.81.37l-1.07.5c-.68.29-1.39.61-2.08,1L141,46.46c-.29.16-.59.29-.86.44a6.79,6.79,0,0,0-1,.61c-.36.27-.71.57-1.06.87l-1.5,1.29c-.43.37-.86.76-1.27,1.13l-.37.34c-.42.35-.81.72-1.2,1.08l-.46.44-1.1,1.07-.53.52c-.77.85-1.58,1.66-2.39,2.5l-.76.79c-1,1-2,2-3.09,3l-.36.35-1.13,1c-.64.56-1.26,1.11-1.92,1.67a5,5,0,0,1-.5.42l-1.43,1.18c-.38.31-.8.61-1.21.9l-.66.48c-.45.33-.9.65-1.36,1L114.55,69l-2.09,1.2c-.45.25-.88.5-1.35.71L108.76,72c-.46.23-.92.44-1.39.64l-.81.38c-.46.21-.94.39-1.41.57l-.91.35c-.46.18-.91.36-1.38.51l-2.74.93c-.43.16-.87.27-1.31.41l-.59.16c-1.34.41-2.69.79-4,1.12l-2,.51L91,77.85l-.52.11-.54.1-1.13.18-1.29.18-.37.06c-1.22.15-2.45.29-3.67.42l-1.5.18-1.52.18a1.47,1.47,0,0,1-.47,0l-.26-.09a.55.55,0,0,1-.21-.34.53.53,0,0,1,.11-.36.56.56,0,0,1,.35-.23l1.13-.36,1-.34.31-.13.7-.27,1.09-.51c.32-.16.64-.3.95-.48l.49-.25a15.91,15.91,0,0,1,1.67-1.09l1.46-1c.41-.3.83-.62,1.24-1l.51-.39c1.24-1,2.7-2,3.7-2.91s2-1.72,3.2-2.72l.44-.39c.93-.82,1.86-1.63,2.83-2.43,1.3-1.07,2.77-2.24,3.93-3.18S107,59,108.19,58.08s2.35-1.82,3.54-2.69c.53-.42,1.1-.81,1.66-1.2l.52-.35c.4-.28.8-.56,1.22-.81,1.37-.83,2.74-1.68,4.13-2.49.42-.25.86-.48,1.29-.74l.75-.4,1.37-.72.59-.31c1.23-.65,2.5-1.26,3.78-1.84.27-.13.56-.24.83-.35l1.27-.52,2-.73c1.72-.61,3.41-1.17,5.18-1.7l2.8-.89-.13-.72-2.58.16-2.24.09-4,.16-2.18.11-.46.23-1.56.75c-1.12.5-2.26.91-3.22,1.26a44.93,44.93,0,0,0-5.52,2.51l-1.7.94a22.85,22.85,0,0,0-2.24,1.3,18,18,0,0,0-2.11,1.63l-.48.39c-.39.34-.8.67-1.2,1l-.5.4c-.83.66-1.69,1.3-2.54,1.94l-2.23,1.66L98,60.7c-.37.27-.76.53-1.14.78l-1.28.9c-.32.22-.65.46-1,.67l-4.21,2.79-2.24,1.48L87,68.06l-.44.27c-.47.3-.95.59-1.43.86l-.33.17c-.52.29-1,.57-1.58.84l-1.36.65-.74.37-2.27,1-1.29.54-.82.34-1.46.54-.6.22a75.1,75.1,0,0,1-8.56,2.55c-1.38.3-2.8.7-4.23,1l-.76.14L61,77.49c-.37.06-.73.12-1.1.15l-1.15.07h-.47l-.42,0a.68.68,0,0,1-.31-.22.41.41,0,0,1-.06-.45,1.27,1.27,0,0,1,.25-.27,3.77,3.77,0,0,1,.65-.37L59,76c.36-.19.74-.37,1.11-.58l1.3-.72q.41-.23.78-.48L62.6,74c.75-.47,1.52-1,2.27-1.47.46-.29.91-.6,1.35-.92l.72-.52c1.12-.81,2-1.5,3.25-2.48s2.45-1.93,3.66-2.9c2.32-1.8,4.65-3.57,7-5.2,1.22-.88,2.44-1.76,3.68-2.6l1.7-1.08c.47-.32,1-.59,1.43-.88l.51-.29c2.2-1.28,4.48-2.46,6.7-3.62l1-.52,1.89-.92.58-.26,1.13-.47c1.32-.53,2.64-1.06,4-1.56l.93-.36,2.37-1.07.46-.18,1.61-.6,1.78-.57,1.8-.61c.6-.18,1.17-.33,1.75-.48l3.64-1,.18,0,1.57-.36-.08-.72h-.58c-.54,0-1.06,0-1.6,0l-2.17,0-4.23-.1L105.11,42l-.63,0-5.85-.49-.42,0-4.7-.68-.15-.05h0L92.14,41a21.38,21.38,0,0,1-2.75.6l-1.67.22c-.75.09-1.49.18-2.23.29l-3.55.58c-.4.06-.81.12-1.2.21l-1.22.25c-1,.19-2,.39-3,.63L71.76,45l-.77.2L67.78,46q-4.57,1.1-9.21,2.1l-4.48,1-2.52.53-1.33.25-2.91.49-.44.07L44,50.71l-.68,0-2.6.14c-.59,0-1.17,0-1.75,0H36.83l-2.67-.12a30.8,30.8,0,0,1-5-.67,34.37,34.37,0,0,1-4-1.14l-2.54-.85-1.55-.52-1.26-.43-2-.4a13.12,13.12,0,0,1-1.7-.35l-.68-.23a10.4,10.4,0,0,1-1.19-.4,12.45,12.45,0,0,1-1.75-1,7,7,0,0,1-.73-.59l.35.11.5.09.21-.69-.32-.25-.31-.11-.8-.27h0a10.32,10.32,0,0,1-1.58-.74l-.29-.18,1.72.13h0l.86,0c.68,0,1.36,0,2,.08l.94.06,1,.07c1.38.08,2.78.12,4.18.13h1.81c.82,0,1.6,0,2.41,0,1.4,0,2.71-.07,4.21,0s3,0,4.51-.14l6.19-.37,2.43-.14,2.65-.19.45,0c1.38-.11,2.77-.24,4.14-.39l1.36-.16,3.22-.34.58-.06,8-.74L65,39.86c.6,0,1.18-.12,1.77-.15,1.55-.09,3.14-.11,4.65-.23s3.12-.14,4.51-.14,2.73,0,4,.12l.44,0,2.29.14.72.06c.5,0,1,.06,1.56.12l0-1q-6.15-1.56-12.26-3.2A17.07,17.07,0,0,1,70.36,35l-3.36-1-.48,0a6.24,6.24,0,0,1-.86,0l-1.49-.07-2.84-.17-3.94-.29-.93-.07c-1.2-.11-2.4-.21-3.61-.39l-3.59-.54-2-.34c-1-.15-2-.31-3-.49-1.42-.25-2.94-.52-4.44-.85l-1.25-.28a6.28,6.28,0,0,1-.73-.25l-.34-.11a22,22,0,0,1-2.26-.66l-1.86-.62-1-.34-1.06-.44c-1.26-.54-2.46-1.15-3.68-1.76l-.39-.13-.57-.34L25.24,25l-.49-.33-1.31-.94L23,23.39,22.48,23l-.66-.53-.43-.32-1.28-1c-1.22-1-2.4-2.06-3.57-3.12l-.92-.83c-.24-.21-.47-.45-.7-.69l-.18-.19c-.54-.52-1-1.05-1.56-1.59-.77-.77-1.51-1.57-2.26-2.4L9.84,11.17C9,10.26,8.13,9.32,7.33,8.36l-.46-.53c-.29-.33-.45-.5-.87-1S5.2,5.71,4.79,5.13A14.64,14.64,0,0,1,3.66,3.35c-.3-.58-.6-1.21-1-2l-.31-.29L2.19,1,2,1,1.77.88A3.58,3.58,0,0,1,1,.51L.87.45l.26.09a5.51,5.51,0,0,0,.7.06L2,.67a2.86,2.86,0,0,1,.87.17l.6.2,1.24.42.64.21,1,.45,1.85.79c1.25.55,2.62,1.16,3.92,1.84l.39.13L14,5.61c.58.34,1.15.71,1.72,1.09l.58.4L18,8.25c.77.49,1.57,1,2.41,1.4a29.76,29.76,0,0,0,3.05,1.21l.85.28,1.45.49,2.71.91,2,.67c.64.23,1.26.5,1.88.79,1.23.56,2.43,1.18,3.63,1.8l5.31,2.67,1.24.63.67.37,1.26.72.63.39c.47.28.92.54,1.34.83l.6.39,1.33.85.48.35,1.31.92L53.3,26l.82.52c1.29.83,2.49,1.68,3.82,2.56l1.32.9.73.53.54.37,2.23.75,1.73.59,1.6.53,1.81.61,3.9,1.12c.63.2,1.29.3,1.9.5l3.34.83L81.69,37l.22-.7-1.3-.44-.61-.2c-1.4-.63-2.83-1.29-4.19-1.93s-2.72-1.31-4-2l-1-.64L70,30.53l-.49-.33c-.47-.31-.91-.59-1.32-.89a30.2,30.2,0,0,1-3.49-2.56,35.52,35.52,0,0,0-3.53-2.83c-1.23-.86-2.48-1.71-3.73-2.54l-1.19-.74-.49-.32c-.59-.36-1.23-.77-1.74-1.16s-1-.75-1.5-1.16l-1.63-1.34-.51-.45-.36-.3c-.56-.49-1.11-1-1.66-1.5l-1-1-.65-.63c-.51-.49-1-1-1.47-1.53L45,11l.39-.07-.09.3,1,.67.54.36c.53.36,1.13.79,1.55,1.14l1.25,1.12.17.15,1.38,1.18,1.66,1.31a31.71,31.71,0,0,0,3.34,2.33c1.21.72,2.4,1.46,3.59,2.24.54.35,1.07.72,1.59,1.08l.26.09c.57.4,1.14.81,1.68,1.24L66,26.34c.82.65,1.71,1.26,2.6,1.89l.22.08c.91.63,1.82,1.25,2.75,1.83l.8.51.55.3.29.1,1.5.78h0l.71.34c1,.49,2,.94,2.88,1.36l1.57.73.54.18L82,35l.67.22L85.1,36l1.1.37,1.22.4,3.32.9.49.17.22-.7-1.11-.56L88,35.38c-.52-.26-1-.54-1.56-.82l-2.06-1.2-.29-.1-.5-.3-1.23-.81c-1.12-.72-2.19-1.54-3.24-2.34l-.37-.29L77,28.19l-1.66-1.27c-.19-.16-.41-.3-.62-.45l-1.08-.78-2-1.36c-.55-.38-1.1-.77-1.68-1.11l-1.88-1.06c-1.23-.67-2.44-1.36-3.65-2.08l-1.79-1-1.08-.69L61,17.93c-1.27-.81-2.42-1.48-3.55-2.07a39.38,39.38,0,0,0-4.92-2L51,13.38c-.49-.18-.94-.43-1.42-.59l-.8-.41.32.1,1.36.33.33.11c.6.12,1.34.27,1.81.42l1.44.49.51.17a26.81,26.81,0,0,1,3.73,1.53c1.28.66,2.53,1.36,3.55,2s2.05,1.25,3.1,1.84l.49.27c.61.36,1.24.69,1.86,1l1.82.94L71,22.69l.58.36.3.1,1,.7,1.6,1.1.5.35c.44.29.88.6,1.31.93l.35.27,1.44,1.11L79.92,29c1,.72,2,1.54,3.3,2.36l1.55,1,1.86,1.09c1.15.65,2.32,1.26,3.5,1.85l3.43,1.76,2.38,1.08a19.61,19.61,0,0,0,2.55,1l.19.07a30.78,30.78,0,0,0,3.13.85l0-.74,0,.4-.1.33h0l.07-.23,0,.24,1.37.23,2.15.38,1.13,0,.08-.72-.3-.1c-.87-.29-1.71-.67-2.58-1-.63-.26-1.24-.51-1.83-.81l-2.47-1.23c-.49-.25-1-.54-1.45-.81l-.55-.34-1.66-1-4.14-2.69c-.86-.56-1.71-1.16-2.57-1.74l-2.91-2c-1.87-1.27-3.74-2.55-5.56-3.88l-.77-.55L78.63,23l-2.35-1.6c-.31-.22-.63-.43-1-.62L73.88,20a6.85,6.85,0,0,0-.71-.37l-1.48-.74-2-1-1.33-.58L65.5,16.13l-1.29-.55-2.39-.93-2.9-1-.59-.19-2.49-.61-2.75-.51-.86-.12-.39-.05-1.51-.27A28.09,28.09,0,0,1,47.1,11l-.77-.25c.4,0,.78-.07,1.15-.1a21.7,21.7,0,0,1,2.42,0,27,27,0,0,1,4,.54l1.85.33.56.19,2.6.67.92.31,1.13.38,1.52.51c3.24,1.31,5.89,2.46,8.36,3.62.66.31,1.29.62,1.94,1l.57.29,1.37.72,1.24.73.72.48,2,1.37c.81.57,1.61,1.17,2.42,1.76l1.3.94L85,26.25l2.84,1.94c1.87,1.29,3.75,2.58,5.65,3.83l2.49,1.64c.52.34,1,.69,1.6,1l1.72,1,.57.32,2.53,1.31a43.49,43.49,0,0,0,4.48,1.82l.24.08a42.28,42.28,0,0,0,4.7,1.26h0c.63.13,1.27.23,2,.33l3.87.06,6.44-.09c.69,0,1.39,0,2.09-.08l.81,0,3.67-.26,3.9-.18,2.55-.12,1.5-.09,5.53-.41,3.67-.42L147.7,39l.06-.49-.13.42,0-.19.08-.25-.06.18,0-.11,0-.07-1.36-.26-1.23-.29-1.48-.38-1-.32a9.34,9.34,0,0,1-1.57-.43l-1.87-.54-2.46-.71L135.08,35l-.47-.15-1.91-.64-3.07-1-1.3-.44-.28-.09a4.62,4.62,0,0,0-1.09-.49c-.9-.45-1.84-.94-2.76-1.43l-.42-.24-1-.51-1.26-.66-4-1.95a10.12,10.12,0,0,0-1.9-.78l-2.21-.86-1-.32-3-1.19c-1.34-.5-2.68-1-4-1.57-1.69-.69-3.53-1.39-5.63-2.09-.9-.3-1.76-.74-2.79-1.08l-.52-.18-.21-.07.42,0a17.69,17.69,0,0,1,2-.54v-.42l1,0a7.21,7.21,0,0,1,.93,0l.72,0,.49-.07,2.27-.11c1-.05,2.06-.06,3.08-.06h5.37l2.6.08a13.88,13.88,0,0,1,1.57.08l2.22.23.62.11,1.68.33a29.9,29.9,0,0,1,3.5.89l.71.24,4.3,1.18,1.84.61.59.2,1.12.38,2.9,1,1.42.57.59.2c1.23.51,2.45,1.09,3.64,1.67l4.32,2.14c1.29.65,2.68,1.31,4.08,2l1.26.61A24,24,0,0,0,154,31.59l1.91.64h0l1.45.49,2.77.73h0l3.83.75.52.06,3.86.47c.48.05,1,.09,1.56.13s1.22.08,1.84.17c.94.15,1.88.33,3,.58l1.61-.34c.61-.11,1.21-.23,1.81-.36l5.19-1.24-.06-.73c-.9,0-1.8-.12-2.68-.22l-3.1-.34c-1-.12-2.11-.26-3.16-.47a29.09,29.09,0,0,1-4.08-1.05l-1.94-.65c-1-.42-2-.89-3-1.34-.63-.3-1.25-.59-1.87-.93l-.62-.32c-.44-.23-.91-.47-1.37-.74L156,23.62l-3-1.76-2-1.11-.55-.3c-1.23-.61-2.45-1.2-3.69-1.78l-.57-.19-.66-.22-.61-.21-2-.67-1.91-.64a18.35,18.35,0,0,1-2.1-.81c-.84-.39-1.67-.8-2.47-1.23,1,.12,1.81.33,3,.57A30,30,0,0,1,143,16.32l2,.66,1.75.85.63.21.29.1c1.56.68,2.83,1.31,4,1.91,2.34,1.22,4.54,2.47,6.41,3.54l3.52,2c.87.49,1.75,1,2.64,1.39l.39.13,2.69,1.22a31.55,31.55,0,0,0,3.26,1.29,29.16,29.16,0,0,0,3.41.93c1.14.23,2.28.42,3.4.54l3.09.35,1,.11,1.55.17c.67.1,1.35.23,2,.36l1.18-.07a13.6,13.6,0,0,0,2.92.23l2.13-.56c.52-.12,1-.3,1.54-.47l.94-.3-.06-.71-.42,0A8.68,8.68,0,0,1,192,29.9l-.24-.09c-.54-.11-1.24-.25-1.61-.37l-1.16-.39-1.86-.62-.4-.14-1.41-.62-.58-.19c-.56-.26-1.1-.53-1.64-.83l-.57-.29c-.42-.23-.88-.51-1.35-.8l-.51-.32c-.53-.33-1.06-.69-1.57-1.06l-.26-.08-1.67-1.21-.69-.51c-.94-.68-1.88-1.35-2.79-2.07-2.28-1.76-4.71-3.66-7-5.79-1.07-1-2.1-2-3.13-3.07L161.05,9a38.86,38.86,0,0,0-3.32-2.54c-1.21-.83-2.44-1.56-3.6-2.24-.57-.33-1.1-.59-1.72-.93s-1.14-.58-1.9-1-1.47-1-2.18-1.56L146.94.29h1L147.55,0l1.15.39.21.07.27.09a26.43,26.43,0,0,1,3.85.74l.62.21,1.89.48c1.06.29,2.11.56,3.15.91l.84.28a37.44,37.44,0,0,1,5,2.09c.88.44,1.72.9,2.57,1.37l3,1.66,1.57.79.66.34.22-.7-.09.78.22-.71-.22.71a25,25,0,0,1,2.35,1.23l1.34.83,1.56,1,.4.27c1.06.7,2.12,1.45,3.15,2.19l2.15,1.51.54.37,1.56,1c.41.28.83.53,1.24.77l.44.26c.86.52,1.76,1,2.7,1.57l1,.5.29.09a49.74,49.74,0,0,0,5,2.2l1.32.44a29.8,29.8,0,0,0,3.62,1c1,.19,1.94.3,2.88.41l1.56.15c.7.11,1.38.24,2.07.37l.11,0,2.25-1,3.31-1.48,1.88-.86c.54-.27,1-.5,1.68-.76s1.34-.49,2-.7a27.43,27.43,0,0,1,3-.65A28.27,28.27,0,0,1,219.18,22.22Zm-30.61,1.85a36.79,36.79,0,0,0,4.28,1.1l.11-.72-.05.48.07-.47-.08.6.11-.61v.37l-.11.35.07,0,2.36.43c.7.12,1.4.2,2.09.28L198,26l.14-.71-1.26-.43-2.13-.71c-1-.41-2.06-.89-3.07-1.38a40.54,40.54,0,0,1-4.11-2.2l-2.45-1.48-.43-.29-1.32-.91c-1.07-.72-2.09-1.49-3.13-2.27l-.42-.3c-1-.78-2.08-1.53-3.13-2.24L175,11.91l-1.33-.86a7.34,7.34,0,0,0-1.37-.74l-.55-.28-2-1-1.19-.66-1.36-.77c-1.19-.67-2.39-1.35-3.62-2h0A35,35,0,0,0,159,3.7c-1-.34-2.08-.58-3.1-.93l-1.48-.39-.22.68c1.24.68,2.23,1.26,3.16,1.87l.65.32,1.93,1a16.7,16.7,0,0,1,1.78,1.06c.49.34.95.71,1.41,1.08l.26.22,1.74,1.41c.59.48,1.17.92,1.77,1.35s1.18.86,1.79,1.27L170.75,14l.8.46.89.53,2.1,1.22,2.31,1.35,1.23.73,1.53,1c.29.16.56.37.85.57l2.42,1.65a13.34,13.34,0,0,0,1.62,1A32.34,32.34,0,0,0,188.38,24Zm-3.72,1.64h0l.33.12a20,20,0,0,0,2,.86l.26.09,1.45.49.23.07a28.71,28.71,0,0,0,3.65.93,22.84,22.84,0,0,0,5.48.19l.2,0c.66-.06,1.31-.16,2-.26l1.89-.22,1.54-.53c.33-.13.67-.27,1-.43l-.15-.69h-.28a2.11,2.11,0,0,1-.66,0,10,10,0,0,1-1.23-.1l-.35,0-1.35.11a21.45,21.45,0,0,1-3.4-.06c-1.05-.11-2-.29-3.06-.47s-2-.43-3.1-.62a24.67,24.67,0,0,1-3.17-.9c-.92-.31-1.83-.74-2.72-1A16.73,16.73,0,0,1,183,21.92l-1-.69L180.26,20l-.65-.43-1.32-.87-.63-.4-4-2.44-2.83-1.68-.62-.38-.59-.4-1.42-.94-1.82-1.32c-.4-.28-.78-.59-1.15-.88l-.21-.07-.46.56c.69.67,1.36,1.33,2,2,2.1,1.83,4.27,3.58,6.47,5.19,1.21.9,2.45,1.8,3.68,2.67l2.09,1.49,1.26.84.71.47c.49.33,1,.64,1.54.93l.64.36a3.43,3.43,0,0,0,.85.45Zm9.21,9.55,2.05-1.43-.34-.64-.38.17-.36.18c-.47.37-.93.74-1.41,1.09l-.78-9.43ZM136,75.7l.22,0L139,75l1.49-.46,3.25-1.08,4.36-1.63c.34-.13.7-.29,1-.44l3.22-1.45,1.09-.53,2.86-1.45c.43-.2.84-.44,1.35-.72l2.57-1.45,1.13-.68,2.31-1.41c.33-.18.66-.4,1-.62l2.2-1.46,1.81-1.34c.95-.71,2.09-1.58,2.78-2.19s1.44-1.3,2.27-2.1c.56-.54,1.17-1.18,1.73-1.8l1.81-2c.3-.35.61-.71.89-1.06l.41-.49c.39-.46.81-.93,1.23-1.39l.27-.32c.85-1,1.73-1.93,2.61-2.89l.37-.41c.94-1,1.9-2,2.85-3.09l1.19-1.25c.44-.47.89-.89,1.42-1.39a25.89,25.89,0,0,1,2.26-2.1c.89-.74,1.79-1.42,2.71-2.08l-.41-.6-5.28,3.45c-.48.31-.95.64-1.43,1l-.41.31-2.78,2-2,1.38-1.14.77-1.05.79-.64.5-1.8,1.51c-1.24,1-2.23,1.93-3.1,2.81-1.09,1.12-2.17,2.26-3.25,3.4-.49.55-1,1.11-1.5,1.58s-1,.91-1.55,1.41c-1.07.91-2.12,1.89-3.25,2.73l-3.67,2.6-1.86,1.34c-.55.38-1.11.74-1.69,1.09-1.21.74-2.47,1.47-3.77,2.2l-1.59.88-2,1.12-1.83,1c-.63.41-1.11.66-2,1.16s-1.82.94-2.74,1.39l-1.08.53-3.29,1.64-1.12.57-1.72.88h0Zm40.84-35.4-1.17.47c-.5.21-1,.46-1.49.71A24.43,24.43,0,0,0,171.76,43c-.51.34-1,.67-1.54,1.13s-1.16.94-1.71,1.41c-1.2,1-2.39,2.06-3.57,3.1a6.14,6.14,0,0,0-.45.43l-1.43,1.36L162,51.49l-.41.45c-.84.88-1.65,1.78-2.44,2.67L157,57c-.45.51-.92,1-1.4,1.48a15.58,15.58,0,0,1-1.53,1.4l-1.88,1.49c-1.84,1.46-4.26,3.41-6.61,5.5a38.29,38.29,0,0,1-6.49,4.31l-2.34,1.35-1.1.62.34.66,1.73-.87c.4-.2.78-.39,1.17-.6l2.43-1.25,1.73-.88c1.17-.61,2.33-1.21,3.47-1.87l.27-.16c1.12-.65,2.24-1.3,3.39-1.9,2.3-1.25,5-2.7,7.49-4.35l.72-.5L160,60.3l1.91-1.39-.46-.56.25.25.21.31h0l1.57-1.12c.57-.42,1.11-.87,1.65-1.32l.18-.17c1.06-.91,2.16-1.87,3.18-2.88.38-.38.75-.79,1.13-1.19l.32-.35,1.63-1.74c.87-.91,1.85-2,3-2.93.6-.53,1.2-1.07,1.81-1.58l1.19-1,.62-.49.54-.39c.26-.22.52-.43.78-.62l2.94-2,1.41-1c.71-.48,1.38-1,2.06-1.47l1.59-1.12-.31-.65-.46.16-.94.35-2.46.83c-2.15.71-4.29,1.41-6.42,2.17ZM130.3,22.12l-.57-.19L128,21.44l-4-1.13c-1.23-.36-2.51-.67-3.81-1l0,.73v-.64h0l0-.08-.14.72v-.31l.13-.41h0c-.66-.12-1.29-.23-2-.31s-1.39-.16-2.07-.2c-1.44-.09-2.88-.14-4.31-.15q-1.72,0-3.45,0l-1,0-.08.71,2.74.92,2.11.71c1.16.35,2.39.7,4,1.1,1.35.32,2.66.64,3.92,1.07l4,1.34,2.15.72,2,.66.4.13c1.15.39,2.27.85,3.41,1.23l.35.12,1.35.53,3,1.24c.46.19.93.4,1.41.62l.61.2,3,1.26.61.2,1.57.53,1,.35,2.26.75,2.5.71,1.89.52.72.24,2.76.61,3,.51.32.1,4.11.49,1.55.14c.65.05,1.29.1,1.93.18l1.4.24.31.1.89-.14,0-.74-4.27-.5a10.34,10.34,0,0,1-1.11-.21l-2.91-.58-.81-.27-1.6-.42c-.79-.18-1.58-.45-2.34-.7l-.61-.21a36.82,36.82,0,0,1-3.66-1.55l-3.63-1.8-3.86-1.94-2.88-1.46-2.19-1-1.41-.61-.64-.21L134.92,24l-.83-.27-1.23-.42Zm13.62,11.65-1.29-.43c-.67-.26-1.34-.57-2-.79l-4.38-1.95L133,29.2,132,28.75c-.88-.38-1.86-.8-2.84-1.13l-1.1-.37-2.07-.7-1.83-.61a19.74,19.74,0,0,0-2.17-.83l-1.83-.69-2.07-.7-1.9-.63c-1-.27-2-.6-3-.94l-.93-.31L109.65,21l-2.89-1-1.71-.58-.39-.13-1.74.07-1.82.08c-.5,0-1,0-1.5,0l.06.76,2,.66c1.34.47,2.76.94,4,1.48s2.56,1,3.85,1.41l.61.2,3.46,1.26,1,.32c1,.38,2.07.75,3.06,1.21,1.37.64,2.67,1.28,4.06,2l.34.12,1.81.93,1.79,1,1.51.79h0a18,18,0,0,0,1.73.73l1.88.63.53.18,3.93,1.31,4.13,1.22c1.45.44,2.92.85,4.52,1.27l1.9.47,1,.22,1.17.23c1.91.36,3.83.72,5.83,1l3.22-.31c.57,0,1.11-.12,1.66-.19l.91-.1v-.73l-.42-.05L158,37.35l-2.8-.46a10.91,10.91,0,0,1-1.72-.34l-.82-.18a13.45,13.45,0,0,1-1.43-.31l-2.67-.72-1.45-.48-.54-.18L144.59,34ZM94.25,71.88l.2-.07c.94-.36,1.9-.7,2.86-1l1-.34c1.18-.44,2.42-1,3.87-1.61.68-.31,1.36-.64,2-1l1.88-.9a72.63,72.63,0,0,0,7.36-4.36c2.51-1.7,5-3.43,7.45-5.17.61-.44,1.32-.94,1.85-1.27s1.11-.71,1.65-1.11L128.8,52c.95-.67,1.91-1.34,2.88-2l.69-.46c.43-.29.84-.57,1.27-.83l1.83-1.12q2-1.19,3.94-2.33l2-1.19a16,16,0,0,1,1.92-1c.65-.28,1.34-.49,2-.71l.34-.12,1.75-.47-.11-.71-1.66.17-.2,0c-1,.25-1.88.47-3,.76s-2.16.65-3.22,1l-4.89,1.67-2.24.77-.2.08-1.66.63c-.66.26-1.3.54-2,.83l-.24.1-.7.31-1.12.54c-.55.27-1.09.57-1.65.86l-2.49,1.36-1.31.74-.62.37c-1.26.72-2.47,1.48-3.7,2.26l-.26.16c-.44.28-.87.55-1.3.85L113,55.91c-2.42,1.85-4.81,3.72-7.2,5.61-2,1.58-4.4,3.44-6.63,5.45-1.2,1-2.43,2.11-3.65,3.13L94,71.26Zm47.62-26.76,2.4-1.17-.28-.68a12.4,12.4,0,0,0-1.25.54l-1.2.66Zm-20.72,12.7-2.79,2c-2.27,1.61-4.71,3.36-7.16,4.93a68.12,68.12,0,0,1-7.43,4.12,42.71,42.71,0,0,1-4.24,1.88c-.65.26-1.31.47-2,.68l-.39.14c-.72.24-1.44.47-2.14.73h0L91.61,73.6c-.4.15-.79.32-1.25.52-.7.5-1.38,1-2.07,1.49l-1,.67c-.34.22-.7.41-1.07.6l.45.66.52-.07,1.42-.2.24,0c.68-.12,1.27-.22,2-.37s1.53-.35,2.28-.54l.28-.06c1.22-.32,2.45-.61,3.67-1l2.07-.61.69-.22,3-1,2.85-1.1,2.56-1.17,1.46-.71.49-.25c.44-.22.9-.45,1.32-.68l2.28-1.27c.37-.21.73-.44,1.07-.67l1.85-1.14h0L118.81,65c.47-.33.93-.71,1.38-1.08l.19-.16c.52-.43,1-.85,1.55-1.29l.51-.45c.41-.35.83-.71,1.22-1.07l2-1.88c.41-.37.78-.74,1.18-1.12l.37-.39c.67-.68,1.28-1.27,1.92-1.92l1.21-1.24c1.05-1,2-2,3.16-3.06s2.28-2.06,3.42-3l1.28-1.09-.4-.61-1.73,1.07c-1,.6-1.93,1.19-2.88,1.81-1.23.81-2.44,1.64-3.65,2.49l-4.13,2.95-3.88,2.7ZM19.25,12.26l1,.48c1,.47,2,.93,2.92,1.45l1.27.69c-.55-.2-1.07-.47-1.61-.65l-1.66-.77-.64-.31c-.54-.27-1.08-.52-1.62-.81l-1-.54-1-.6c-.58-.38-1.14-.76-1.69-1.16l-.82-.61-.84-.63L11.89,7.61c-.75-.5-1.47-.94-2.29-1.41S8,5.21,7.17,4.69l-.51-.37-.43.58A15.37,15.37,0,0,1,7.45,6.09l1.37,1.6,2.56,2.87.95,1,2.39,2.58.53.54c.55.6,1.11,1.2,1.71,1.75l2.46,2.34,2.34,2,1.13.91.39.31c.3.25.6.48.91.7L25.8,23.9a10.07,10.07,0,0,0,.88.56l.6.38.93.55,1.59.82,1.47.71a6,6,0,0,0,1.41.61l1.81.6,1.59.54,1.28.42,1.23.42.51.17,3.24.72c2.62.48,5.25.93,7.9,1.38l.95.17,2.16.32c.61.09,1.21.16,1.84.22l.46,0c1.4.14,2.8.26,4.22.36l1.69.12.5,0,.13-.71L58,30.79l-1.84-.62-6.66-2.54L47.61,27l-1.06-.35-5-1.84a3.58,3.58,0,0,1-.63-.21l-2.38-1.06-.61-.2-1.54-.8c-.81-.42-1.6-.87-2.39-1.35a9,9,0,0,1-.82-.55l-.2-.07a12.23,12.23,0,0,1-1-.78l.79.43,1.22.62c.57.28,1.12.56,1.68.87h0l1.76.85a3.08,3.08,0,0,0,.9.42l3.3,1.4.54.18,6,2,1.89.63,5.07,1.83.32-.65L55,28.12l-2-1.3-1.24-.76c-.81-.49-1.61-1-2.4-1.52l-.55-.36c-.39-.27-.78-.53-1.18-.77l-.47-.3c-.46-.3-.93-.61-1.41-.89l-2-1.18-.7-.37-1.37-.73-7.88-3.82a33.27,33.27,0,0,0-3.61-1.6l-2.13-.71h0l-2.07-.69-.78-.26c-1-.22-1.84-.52-2.76-.83l-.5-.17c-.68-.24-1.35-.5-2-.8a20.51,20.51,0,0,1-1.91-1c-1.17-.69-2.31-1.46-3.56-2.31a15.58,15.58,0,0,0-1.75-1c-.56-.32-1.13-.63-1.7-.92L9.83,5.14,9.33,5,9,5.62l2,1.31c1,.66,2,1.44,3,2.17l.34.26c.74.6,1.49,1.16,2.27,1.69a14.13,14.13,0,0,0,1.22.79l1.37.75Zm93,33.7-.28.09-1.09.34a8.91,8.91,0,0,1-.92.27l-1,.34-.57.19.25.7-.25-.7.07.23-.08-.23.22.7-.23-.69c-1.13.35-4.76,1.71-4.76,1.71-1,.38-2.28.86-3.05,1.18s-1.77.74-2.31,1-1.07.52-1.61.8l-1,.54L92.42,54l-.63.33-2.23,1.22c-1,.61-2.07,1.2-3.1,1.82L85.6,58l-.48.34c-.45.27-.66.42-1.33.89l-2.06,1.44-.64.46c-2.07,1.47-4.48,3.23-6.9,5.11L70,69.47l-1.16.9-1.52,1.14.36.64,3.1-1.43,1.05-.49c.9-.44,1.84-.87,2.77-1.28l.84-.37c1-.43,2-.91,3.06-1.4l2-1,1.62-.88.27-.15,1.43-.82.41-.24c.61-.31,1.22-.66,1.82-1L90,60.69a10,10,0,0,1,1.53-.9,14.06,14.06,0,0,0,1.92-1c1.21-.74,2.38-1.51,3.55-2.31l1.17-.83-2,1.41c-1.1.77-2.25,1.58-3.41,2.28l-2,1.15-1.77,1.06c-1,.61-1.91,1.24-2.86,1.87l-.69.44a14.19,14.19,0,0,1-1.27.8l-.48.29c-.52.32-1,.61-1.55.91l-.3.18c-.62.34-1.27.68-1.92,1l-1.92,1-1.33.63-.56.26-1.89.9L70.4,71.65l-2.81,1.24-1.06.47c-.55.24-1.09.49-1.64.72-.86.39-1.77.74-2.68,1.08l-.5.22a5.51,5.51,0,0,1-.67.38l-.35.2.22.68a9.28,9.28,0,0,0,1-.18c1.31-.28,2.65-.62,3.93-.93s2.58-.66,3.85-1l.37-.1c.49-.14,1-.27,1.45-.44l2.18-.72,2.15-.84c.49-.18,1-.4,1.46-.6l.59-.25c1.2-.5,2.43-1.06,3.74-1.71l.23-.11c.56-.27,1.13-.55,1.69-.85l.33-.19c.58-.3,1.14-.61,1.69-.94,1.31-.8,2.59-1.62,3.87-2.47l.18-.1c.92-.59,1.83-1.19,2.72-1.8l1.28-.84c.93-.61,1.85-1.26,2.77-1.9l.93-.64c1.68-1.22,3.35-2.46,5-3.69l3.38-2.5c.72-.5,1.48-1.09,2.2-1.66l.43-.33,1.4-1.09.28-.23c.67-.54,1.32-1.08,2-1.61.38-.29.79-.58,1.19-.83s.8-.47,1.25-.72l1.48-.79c.58-.32,1.16-.63,1.75-.92l.79-.39-.23-.69-1.15.26-1.51.35-1.33.66c-.58.27-1.13.56-1.71.87ZM17,45.23h0a12.94,12.94,0,0,1,2,.38l3.12.62c1.41.29,2.83.5,4.25.73a38.64,38.64,0,0,0,4.17.34l4.37.09,2.59.06,2,.06c.82,0,1.67,0,2.5,0s1.94,0,2.92-.11L46,47.36c2.73-.22,5.44-.57,8.64-1,2-.29,3.93-.67,5.84-1l2.6-.5c1.51-.27,3.13-.55,4.55-.77s2.86-.38,4.31-.54l2.47-.26,2-.48,1.29-.29,2.71-.56a8.91,8.91,0,0,1,.9-.16L83,41.46l0-.73-.47,0c-1.51-.1-3-.14-4.55-.17-.65,0-1.28,0-1.93,0H73.79L70,40.7l-3.26.19c-2.93.29-5.83.59-8.75.92l-2.76.28-1.77.17-2.67.31L49,42.78c-3.11.37-6.14.57-8.7.74l-5.56.35c-1,.06-2,.13-3,.18-1.48.08-3,.14-4.44.16H21.48c-1.75,0-3.51,0-5.26-.12l-.22.69Zm12.55,4.19a36.3,36.3,0,0,0,3.75.5c.48,0,1,.06,1.45.09h.68c.71,0,1.42.07,2.13.06h.8c.63,0,1.27,0,1.89,0l3-.17,3.24-.37.66-.11,2.76-.49,2.27-.48,2.6-.58-.14-.73-1.12.19c-.43.12-2.1.32-2.1.32l-2,.3-2.34.32c-.52.09-1.08.13-1.66.19l-.46,0-2.15.17c-.75,0-1.5.06-2.25.07h-4.2l-2.26,0h-2c-.82,0-1.6,0-2.41,0ZM.2.34,0,.67.18.35Z"></path></svg>